<svg xmlns="http://www.w3.org/2000/svg" width="1600" height="900" viewBox="0 0 1600 900">
  <rect width="1600" height="900" fill="#f5f9fe"/>
  <rect x="28" y="26" width="222" height="848" rx="18" fill="#063a70"/>
  <rect x="58" y="55" width="60" height="60" rx="12" fill="#00529c"/>
  <text x="72" y="91" font-family="Arial" font-size="20" font-weight="700" fill="#fff">BRI</text>
  <text x="58" y="164" font-family="Arial" font-size="18" font-weight="700" fill="#fff">BBRI BI</text>
  <text x="58" y="198" font-family="Arial" font-size="14" fill="#cde8ff">Executive Signal</text>
  <rect x="54" y="235" width="170" height="41" rx="10" fill="#155b97" stroke="#4388c0"/>
  <text x="78" y="261" font-family="Arial" font-size="14" font-weight="700" fill="#fff">Dashboard</text>
  <rect x="54" y="288" width="170" height="41" rx="10" fill="#0e477c" stroke="#4388c0"/>
  <text x="78" y="314" font-family="Arial" font-size="14" fill="#ddeeff">Proses Data</text>

  <rect x="285" y="26" width="1283" height="100" rx="18" fill="#00529c"/>
  <text x="315" y="65" font-family="Arial" font-size="28" font-weight="700" fill="#fff">Executive Signal Dashboard BBRI</text>
  <text x="316" y="96" font-family="Arial" font-size="14" fill="#ddeeff">Market intelligence dan corporate action watch berbasis data perdagangan harian</text>
  <rect x="285" y="145" width="1283" height="73" rx="14" fill="#fff" stroke="#d8e5f3"/>
  <rect x="306" y="163" width="176" height="37" rx="18" fill="#dc2626"/>
  <text x="345" y="187" font-family="Arial" font-size="18" font-weight="700" fill="#fff">PRESSURE</text>
  <text x="505" y="177" font-family="Arial" font-size="16" font-weight="700" fill="#111827">Executive Summary:</text>
  <text x="505" y="202" font-family="Arial" font-size="14" fill="#667085">BBRI berada pada zona pressure karena drawdown, return 20D, dan foreign flow masih negatif.</text>
  <rect x="1290" y="156" width="240" height="51" rx="12" fill="#f8fbff" stroke="#d8e5f3"/>
  <text x="1305" y="179" font-family="Arial" font-size="12" font-weight="700" fill="#667085">CORPORATE ACTION WATCH</text>
  <text x="1305" y="199" font-family="Arial" font-size="16" font-weight="700" fill="#111827">Buyback Watch</text>

  <g font-family="Arial">
    <g transform="translate(285 238)"><rect width="150" height="105" rx="12" fill="#fff" stroke="#d8e5f3"/><rect width="150" height="6" rx="6" fill="#dc2626"/><text x="14" y="31" font-size="12" font-weight="700" fill="#667085">MARKET STATUS</text><text x="14" y="64" font-size="24" font-weight="700" fill="#111827">Pressure</text><text x="14" y="89" font-size="13" fill="#667085">risk signal</text></g>
    <g transform="translate(449 238)"><rect width="150" height="105" rx="12" fill="#fff" stroke="#d8e5f3"/><rect width="150" height="6" rx="6" fill="#00529c"/><text x="14" y="31" font-size="12" font-weight="700" fill="#667085">HARGA TERAKHIR</text><text x="14" y="64" font-size="24" font-weight="700" fill="#111827">2,950</text><text x="14" y="89" font-size="13" fill="#667085">2026-05-29</text></g>
    <g transform="translate(613 238)"><rect width="150" height="105" rx="12" fill="#fff" stroke="#d8e5f3"/><rect width="150" height="6" rx="6" fill="#dc2626"/><text x="14" y="31" font-size="12" font-weight="700" fill="#667085">RETURN 20D</text><text x="14" y="64" font-size="24" font-weight="700" fill="#111827">-7.23%</text><text x="14" y="89" font-size="13" fill="#667085">momentum terbaru</text></g>
    <g transform="translate(777 238)"><rect width="150" height="105" rx="12" fill="#fff" stroke="#d8e5f3"/><rect width="150" height="6" rx="6" fill="#dc2626"/><text x="14" y="31" font-size="12" font-weight="700" fill="#667085">DRAWDOWN</text><text x="14" y="64" font-size="24" font-weight="700" fill="#111827">-53.91%</text><text x="14" y="89" font-size="13" fill="#667085">Pressure Zone</text></g>
    <g transform="translate(285 360)"><rect width="150" height="105" rx="12" fill="#fff" stroke="#d8e5f3"/><rect width="150" height="6" rx="6" fill="#059669"/><text x="14" y="31" font-size="12" font-weight="700" fill="#667085">VOLATILITAS 20D</text><text x="14" y="64" font-size="24" font-weight="700" fill="#111827">37.77%</text><text x="14" y="89" font-size="13" fill="#667085">threshold 45%</text></g>
    <g transform="translate(449 360)"><rect width="150" height="105" rx="12" fill="#fff" stroke="#d8e5f3"/><rect width="150" height="6" rx="6" fill="#dc2626"/><text x="14" y="31" font-size="12" font-weight="700" fill="#667085">NET FOREIGN 20D</text><text x="14" y="64" font-size="24" font-weight="700" fill="#111827">-4.2B</text><text x="14" y="89" font-size="13" fill="#667085">rolling buy-sell</text></g>
    <g transform="translate(613 360)"><rect width="150" height="105" rx="12" fill="#fff" stroke="#d8e5f3"/><rect width="150" height="6" rx="6" fill="#d97706"/><text x="14" y="31" font-size="12" font-weight="700" fill="#667085">VOLUME VS AVG</text><text x="14" y="64" font-size="24" font-weight="700" fill="#111827">1.78x</text><text x="14" y="89" font-size="13" fill="#667085">spike &gt; 1.5x</text></g>
    <g transform="translate(777 360)"><rect width="150" height="105" rx="12" fill="#fff" stroke="#d8e5f3"/><rect width="150" height="6" rx="6" fill="#dc2626"/><text x="14" y="31" font-size="12" font-weight="700" fill="#667085">ACTION WATCH</text><text x="14" y="64" font-size="20" font-weight="700" fill="#111827">Buyback</text><text x="14" y="89" font-size="13" fill="#667085">decision support</text></g>
  </g>

  <rect x="960" y="238" width="570" height="229" rx="12" fill="#fff" stroke="#d8e5f3"/>
  <text x="982" y="276" font-family="Arial" font-size="18" font-weight="700" fill="#111827">Executive Insight</text>
  <text x="1000" y="310" font-family="Arial" font-size="15" fill="#111827">- Harga di bawah MA20 dan MA60.</text>
  <text x="1000" y="344" font-family="Arial" font-size="15" fill="#111827">- Drawdown berada pada pressure zone.</text>
  <text x="1000" y="378" font-family="Arial" font-size="15" fill="#111827">- Rolling net foreign flow 20D negatif.</text>
  <text x="1000" y="412" font-family="Arial" font-size="15" fill="#111827">- Volume ratio mengindikasikan spike transaksi.</text>

  <rect x="960" y="487" width="570" height="223" rx="12" fill="#fff" stroke="#d8e5f3"/>
  <text x="982" y="525" font-family="Arial" font-size="18" font-weight="700" fill="#111827">Action Recommendation</text>
  <text x="1000" y="560" font-family="Arial" font-size="15" fill="#111827">- Siapkan komunikasi pasar Investor Relations.</text>
  <text x="1000" y="594" font-family="Arial" font-size="15" fill="#111827">- Aktifkan kajian awal Buyback Watch.</text>
  <text x="1000" y="628" font-family="Arial" font-size="15" fill="#111827">- Validasi lanjutan dengan fundamental dan regulasi.</text>
  <text x="1000" y="662" font-family="Arial" font-size="15" fill="#111827">- Lanjutkan monitoring harian.</text>

  <text x="285" y="520" font-family="Arial" font-size="20" font-weight="700" fill="#111827">Chart Olahan</text>
  <g fill="#fff" stroke="#d8e5f3">
    <rect x="285" y="535" width="320" height="185" rx="12"/><rect x="625" y="535" width="320" height="185" rx="12"/>
    <rect x="285" y="738" width="320" height="142" rx="12"/><rect x="625" y="738" width="320" height="142" rx="12"/>
  </g>
  <text x="305" y="560" font-family="Arial" font-size="14" font-weight="700" fill="#111827">Close vs MA20/MA60</text>
  <text x="645" y="560" font-family="Arial" font-size="14" font-weight="700" fill="#111827">Drawdown Zone</text>
  <text x="305" y="763" font-family="Arial" font-size="14" font-weight="700" fill="#111827">Rolling Net Foreign 20D</text>
  <text x="645" y="763" font-family="Arial" font-size="14" font-weight="700" fill="#111827">Volume Ratio + Return</text>
  <polyline points="310,680 355,630 405,655 455,590 505,610 580,570" fill="none" stroke="#00529c" stroke-width="4"/>
  <polyline points="650,590 695,640 745,665 795,700 860,680 920,705" fill="none" stroke="#dc2626" stroke-width="4"/>
  <polyline points="310,835 370,820 430,850 500,800 575,830" fill="none" stroke="#00529c" stroke-width="4"/>
  <polyline points="650,825 705,800 760,835 820,790 910,815" fill="none" stroke="#f37021" stroke-width="4"/>
</svg>
